<mxfile host="app.diagrams.net" agent="Mozilla/5.0 (Windows NT 10.0; Win64; x64) AppleWebKit/537.36 (KHTML, like Gecko) Chrome/136.0.0.0 Safari/537.36 Edg/136.0.0.0" version="27.0.9">
  <diagram id="_ziMa6V_oYhgSmaQkYBD" name="Página-1">
    <mxGraphModel dx="1378" dy="786" grid="1" gridSize="10" guides="1" tooltips="1" connect="1" arrows="1" fold="1" page="1" pageScale="1" pageWidth="850" pageHeight="1100" math="0" shadow="0">
      <root>
        <mxCell id="0" />
        <mxCell id="1" parent="0" />
        
        <!-- Início -->
        <mxCell id="2" value="Home" style="rounded=1;whiteSpace=wrap;html=1;fillColor=#a20025;fontColor=#ffffff;strokeColor=#6F0000;" parent="1" vertex="1">
          <mxGeometry x="360" y="40" width="120" height="60" as="geometry" />
        </mxCell>

        <!-- Login -->
        <mxCell id="7HM-TYzVGSv7COkrBMdq-27" value="login" style="rounded=1;whiteSpace=wrap;html=1;fillColor=#0080ff;fontColor=#ffffff;" parent="1" vertex="1">
          <mxGeometry x="486" y="160" width="120" height="60" as="geometry" />
        </mxCell>

        <!-- Página de Dashboard -->
        <mxCell id="6" value="Dashboard" style="rounded=1;whiteSpace=wrap;html=1;fillColor=#0080ff;fontColor=#ffffff;" parent="1" vertex="1">
          <mxGeometry x="488" y="278" width="120" height="60" as="geometry" />
        </mxCell>

        <!-- Navegação entre páginas -->
        <mxCell id="14" style="entryX=0.5;entryY=0;entryDx=0;entryDy=0;" parent="1" target="5" edge="1">
          <mxGeometry relative="1" as="geometry">
            <mxPoint x="420" y="100" as="sourcePoint" />
            <mxPoint x="170" y="160" as="targetPoint" />
          </mxGeometry>
        </mxCell>

        <mxCell id="7HM-TYzVGSv7COkrBMdq-28" style="exitX=0.5;exitY=1;exitDx=0;exitDy=0;entryX=0.5;entryY=0;entryDx=0;entryDy=0;" parent="1" source="2" target="7HM-TYzVGSv7COkrBMdq-27" edge="1">
          <mxGeometry relative="1" as="geometry">
            <mxPoint x="482" y="110" as="sourcePoint" />
            <mxPoint x="586" y="170" as="targetPoint" />
          </mxGeometry>
        </mxCell>

        <!-- Lista de clientes e detalhes -->
        <mxCell id="7HM-TYzVGSv7COkrBMdq-33" value="new customer" style="text;html=1;align=center;" parent="1" vertex="1">
          <mxGeometry x="154" y="130" width="80" height="30" as="geometry" />
        </mxCell>

        <mxCell id="12" value="customer_list" style="rounded=1;whiteSpace=wrap;html=1;fillColor=#f0a30a;fontColor=#000000;" parent="1" vertex="1">
          <mxGeometry x="476" y="499" width="120" height="60" as="geometry" />
        </mxCell>

        <mxCell id="13" value="customer_detail" style="rounded=1;whiteSpace=wrap;html=1;fillColor=#f0a30a;fontColor=#000000;" parent="1" vertex="1">
          <mxGeometry x="476" y="619" width="120" height="60" as="geometry" />
        </mxCell>

        <!-- Detalhes de cotações -->
        <mxCell id="10" value="quotation_list" style="rounded=1;whiteSpace=wrap;html=1;fillColor=#f0a30a;fontColor=#000000;" parent="1" vertex="1">
          <mxGeometry x="687" y="499" width="120" height="60" as="geometry" />
        </mxCell>

        <mxCell id="27" value="cotation_detail" style="rounded=1;whiteSpace=wrap;html=1;fillColor=#f0a30a;fontColor=#000000;" parent="1" vertex="1">
          <mxGeometry x="687" y="619" width="120" height="60" as="geometry" />
        </mxCell>

        <!-- Conexões entre as páginas -->
        <mxCell id="15" style="endArrow=classic;html=1;exitX=1;exitY=0.75;exitDx=0;exitDy=0;" parent="1" source="3" target="4" edge="1">
          <mxGeometry width="50" height="50" relative="1" as="geometry">
            <mxPoint x="269" y="190" as="sourcePoint" />
            <mxPoint x="289" y="190" as="targetPoint" />
          </mxGeometry>
        </mxCell>

        <!-- Outras conexões -->
        <mxCell id="19" style="endArrow=classic;html=1;exitX=0.5;exitY=1;exitDx=0;exitDy=0;entryX=0.5;entryY=0;entryDx=0;entryDy=0;" parent="1" source="6" target="7" edge="1">
          <mxGeometry relative="1" as="geometry">
            <mxPoint x="370" y="220" as="sourcePoint" />
            <mxPoint x="70" y="400" as="targetPoint" />
            <Array as="points" />
          </mxGeometry>
        </mxCell>

        <!-- Conexão entre páginas de cotações -->
        <mxCell id="20" style="entryX=0.5;entryY=0;entryDx=0;entryDy=0;exitX=0.5;exitY=1;exitDx=0;exitDy=0;" parent="1" source="10" target="27" edge="1">
          <mxGeometry relative="1" as="geometry">
            <mxPoint x="512.75" y="619" as="targetPoint" />
            <Array as="points">
              <mxPoint x="670" y="590" />
            </Array>
          </mxGeometry>
        </mxCell>

      </root>
    </mxGraphModel>
  </diagram>
</mxfile>
